<svg width="256" height="256" viewBox="0 0 256 256" fill="none" xmlns="http://www.w3.org/2000/svg">
  <defs>
    <linearGradient id="teal" x1="55" y1="222" x2="175" y2="23" gradientUnits="userSpaceOnUse">
      <stop stop-color="#034E5D"/>
      <stop offset="0.48" stop-color="#0A7C8C"/>
      <stop offset="1" stop-color="#14A1AA"/>
    </linearGradient>
    <linearGradient id="gold" x1="82" y1="177" x2="172" y2="80" gradientUnits="userSpaceOnUse">
      <stop stop-color="#B98946"/>
      <stop offset="0.42" stop-color="#F2D591"/>
      <stop offset="1" stop-color="#FFF1BE"/>
    </linearGradient>
  </defs>
  <rect width="256" height="256" rx="52" fill="#07172D"/>
  <path d="M44 218L103 49C111 27 142 27 154 48L229 218H188L131 87L88 184H122C142 184 151 174 159 157L172 128L191 169C180 199 158 218 123 218H44Z" fill="url(#teal)"/>
  <path d="M82 176C119 151 152 144 174 124C196 104 203 79 188 50C216 78 217 122 187 150C162 173 122 173 82 176Z" fill="#07172D"/>
  <path d="M81 175C112 143 140 130 151 88L176 146C153 164 120 166 81 175Z" fill="url(#gold)"/>
  <path d="M80 177C113 156 141 151 164 136C184 123 193 103 190 78C206 110 193 138 168 154C143 170 112 171 80 177Z" fill="url(#teal)"/>
  <path d="M120 135L140 89L158 131C149 136 136 139 120 135Z" fill="#F6DF9E"/>
</svg>
